# xmcd
#
# Track frame offsets: 
#        150
#        25193
#        49493
#        80475
#        99907
#        121521
#        139460
#        156472
#        175927
#
# Disc length: 2678 seconds
#
# Revision: 1
# Processed by: cddbd v1.5.2PL0 Copyright (c) Steve Scherf et al.
# Submitted via: ExactAudioCopyFreeDBPlugin 1.0
#
DISCID=730a7409
DTITLE=Detroit Emeralds - Let's Get Together
DYEAR=1978
DGENRE=Soul
TTITLE0=Let's Get Together
TTITLE1=Turn On Lady
TTITLE2=(Call Me) Traveling Man
TTITLE3=I Can't Seem To Forget
TTITLE4=What's The Deal
TTITLE5=Treat Her Like A Lady
TTITLE6=I Just Don't Know About This Girl Of Mine
TTITLE7=Have A Good Day
TTITLE8=I Just Don't Know About This Girl Of Mine (12" Mix)
EXTD=
EXTT0=
EXTT1=
EXTT2=
EXTT3=
EXTT4=
EXTT5=
EXTT6=
EXTT7=
EXTT8=
PLAYORDER=
